<?xml version="1.0" standalone="no"?><!DOCTYPE svg PUBLIC "-//W3C//DTD SVG 1.1//EN" "http://www.w3.org/Graphics/SVG/1.1/DTD/svg11.dtd"><svg t="1480867537253" class="icon" style="" viewBox="0 0 1024 1024" version="1.1" xmlns="http://www.w3.org/2000/svg" p-id="3857" xmlns:xlink="http://www.w3.org/1999/xlink" width="200" height="200"><defs><style type="text/css"></style></defs><path d="M866.05824 411.0336c-2.60608-193.36192-160.0768-349.33248-354.06336-349.33248-193.98144 0-351.45216 155.97056-354.05824 349.33248h708.1216z" fill="#00DFD5" p-id="3858"></path><path d="M876.12416 420.97152H147.86048l0.13824-10.07616C150.67648 212.86912 313.96352 51.7632 512 51.7632s361.32352 161.10592 363.99616 359.13216l0.128 10.07616zM168.15616 401.09568h687.67744C848.03072 218.5216 695.85408 71.63904 512 71.63904S175.96928 218.5216 168.15616 401.09568z" fill="#6C0000" p-id="3859"></path><path d="M157.81376 409.216h708.36736v58.22464H157.81376z" fill="#FFBD00" p-id="3860"></path><path d="M876.12416 477.37344H147.87584V399.27808h728.24832v78.09536zM167.75168 457.4976h688.49152v-38.34368H167.75168v38.34368z" fill="#6C0000" p-id="3861"></path><path d="M904.99584 467.28704H118.99904c-44.21632 0-80.05632 35.84-80.05632 80.05632s35.84 80.05632 80.05632 80.05632h71.94624c-0.00512 0.256-0.0768 0.49664-0.0768 0.75776v27.2896a30.92992 30.92992 0 0 0 61.85984 0v-27.2896c0-0.26112-0.07168-0.50176-0.0768-0.75776h518.69184c-0.00512 0.256-0.0768 0.49664-0.0768 0.75776v27.2896a30.92992 30.92992 0 0 0 61.85984 0v-27.2896c0-0.26112-0.07168-0.50176-0.0768-0.75776h71.94624c44.21632 0 80.05632-35.84 80.05632-80.05632s-35.84-80.05632-80.05632-80.05632z" fill="#5EB1BE" p-id="3862"></path><path d="M802.19648 696.31488c-22.53824 0-40.86784-18.3296-40.86784-40.86784v-18.11456H262.61504l0.04608 18.11456c0 22.53824-18.3296 40.86784-40.86784 40.86784s-40.86784-18.3296-40.86784-40.86784v-18.11456H118.99904c-49.61792 0-89.99424-40.37632-89.99424-89.99424s40.37632-89.99424 89.99424-89.99424h786.00192c49.61792 0 89.99424 40.37632 89.99424 89.99424s-40.37632 89.99424-89.99424 89.99424h-61.98272l0.04608 18.11456c0 22.53824-18.3296 40.86784-40.86784 40.86784zM252.65152 617.45664h528.9472l-0.39424 37.9904c0 11.58144 9.41056 20.992 20.992 20.992s20.992-9.41056 20.992-20.992v-37.22752l9.86624-0.75776h71.94624c38.66112 0 70.1184-31.45728 70.1184-70.1184s-31.45728-70.1184-70.1184-70.1184H118.99904c-38.66112 0-70.1184 31.45728-70.1184 70.1184s31.45728 70.1184 70.1184 70.1184h82.19648l-0.39424 37.9904c0 11.58144 9.41056 20.992 20.992 20.992 11.58144 0 20.992-9.41056 20.992-20.992v-37.22752l9.86624-0.768z" fill="#6C0000" p-id="3863"></path><path d="M350.81216 549.30944m-32.13312 0a32.13312 32.13312 0 1 0 64.26624 0 32.13312 32.13312 0 1 0-64.26624 0Z" fill="#FFFFFF" p-id="3864"></path><path d="M350.81216 589.72672c-22.28736 0-40.41728-18.12992-40.41728-40.41728s18.12992-40.41728 40.41728-40.41728 40.41728 18.12992 40.41728 40.41728-18.12992 40.41728-40.41728 40.41728z m0-64.27136c-13.1584 0-23.85408 10.7008-23.85408 23.85408s10.7008 23.85408 23.85408 23.85408 23.85408-10.7008 23.85408-23.85408-10.69568-23.85408-23.85408-23.85408z" fill="#6C0000" p-id="3865"></path><path d="M511.99488 549.30944m-32.13312 0a32.13312 32.13312 0 1 0 64.26624 0 32.13312 32.13312 0 1 0-64.26624 0Z" fill="#FFFFFF" p-id="3866"></path><path d="M512 589.72672c-22.28736 0-40.41728-18.12992-40.41728-40.41728s18.12992-40.41728 40.41728-40.41728c22.27712 0 40.40704 18.12992 40.40704 40.41728s-18.12992 40.41728-40.40704 40.41728z m0-64.27136c-13.1584 0-23.85408 10.7008-23.85408 23.85408s10.7008 23.85408 23.85408 23.85408c13.14816 0 23.84896-10.7008 23.84896-23.85408s-10.7008-23.85408-23.84896-23.85408z" fill="#6C0000" p-id="3867"></path><path d="M673.1776 549.30944m-32.13312 0a32.13312 32.13312 0 1 0 64.26624 0 32.13312 32.13312 0 1 0-64.26624 0Z" fill="#FFFFFF" p-id="3868"></path><path d="M673.1776 589.72672c-22.28736 0-40.41728-18.12992-40.41728-40.41728s18.12992-40.41728 40.41728-40.41728 40.41728 18.12992 40.41728 40.41728-18.12992 40.41728-40.41728 40.41728z m0-64.27136c-13.1584 0-23.85408 10.7008-23.85408 23.85408s10.7008 23.85408 23.85408 23.85408c13.1584 0 23.85408-10.7008 23.85408-23.85408s-10.69568-23.85408-23.85408-23.85408z" fill="#6C0000" p-id="3869"></path><path d="M320.34304 960.8192h562.5344s19.03104-77.39904-18.2272-110.73024c-37.25824-33.33632-84.31616-29.4144-84.31616-29.4144s-16.32768-55.70048-55.8848-68.62848c-50.98496-16.6656-92.16 16.6656-92.16 16.6656s-38.23616-57.84576-93.14304-54.90688c-62.78144 3.36384-90.19904 51.96288-90.19904 51.96288s-44.11904-44.11904-107.84768-19.6096c-63.72864 24.50944-64.71168 90.19904-64.71168 90.19904s-61.46048-13.45536-96.08192 25.49248c-31.37536 35.29728-22.54848 98.04288-22.54848 98.04288l162.5856 0.92672z" fill="#BED5E9" p-id="3870"></path><path d="M890.67008 970.76224H320.34304l-171.22816-0.97792-1.19808-8.50944c-0.38912-2.74944-9.08288-67.73248 24.96512-106.01984 28.84608-32.44032 73.7792-32.45056 94.6688-30.2336 3.31776-21.42208 16.61952-67.6096 69.9904-88.13568 13.93152-5.36064 28.09344-8.07936 42.09152-8.07936 31.52896 0 55.19872 13.56288 67.31776 22.44096 12.17024-15.58016 41.43616-44.66688 91.66848-47.36 47.59552-2.4576 82.4576 34.38592 95.95392 51.2512 11.41248-6.9888 33.3824-17.69984 60.72832-17.69984 10.92608 0 21.77536 1.7408 32.25088 5.16096 35.32288 11.55584 53.62176 51.4304 59.84768 68.02944 16.49664 0.3328 53.06368 4.48 83.88608 32.05632 41.23136 36.8896 22.0928 117.11488 21.25312 120.50944l-1.8688 7.56736z m-723.82464-20.75136l153.55392 0.87552h554.34752c3.3792-19.23584 9.33888-70.07744-16.7168-93.3888-27.26912-24.38656-60.1088-27.02336-72.96512-27.02336-2.34496 0-3.7376 0.09728-3.93216 0.11264l-8.0128 0.61952-2.31424-7.72096c-0.14336-0.512-15.40608-50.87232-49.43872-61.99808a83.6096 83.6096 0 0 0-26.07104-4.1728c-32.46592 0-56.54016 18.95424-56.7808 19.13856l-8.46848 6.77888-6.0416-9.02656c-0.34816-0.52736-35.92704-52.9664-84.3264-50.47296-56.27392 3.01568-81.06496 45.16352-82.09408 46.9504l-6.46144 11.27424-9.20064-9.15456c-0.22016-0.22016-24.88832-24.1152-62.30016-24.1152-11.5456 0-23.31136 2.27328-34.95936 6.75328-56.8064 21.84704-58.33728 80.49152-58.3424 81.0752l-0.18432 12.11904-11.86304-2.55488c-0.20992-0.05632-56.3712-11.54048-86.54848 22.3744-21.55008 24.24832-21.89824 64.18432-20.87936 81.55648z" fill="#6C0000" p-id="3871"></path></svg>