<?xml version="1.0" standalone="no"?><!DOCTYPE svg PUBLIC "-//W3C//DTD SVG 1.1//EN" "http://www.w3.org/Graphics/SVG/1.1/DTD/svg11.dtd"><svg t="1480867622344" class="icon" style="" viewBox="0 0 1024 1024" version="1.1" xmlns="http://www.w3.org/2000/svg" p-id="15064" xmlns:xlink="http://www.w3.org/1999/xlink" width="200" height="200"><defs><style type="text/css"></style></defs><path d="M512 982.4256c-258.7904 0-469.32992-210.53952-469.32992-469.32992S253.2096 43.78112 512 43.78112s469.32992 210.52416 469.32992 469.31456S770.7904 982.4256 512 982.4256z m0-920.58624c-248.82688 0-451.25632 202.43456-451.25632 451.25632 0 248.83712 202.42944 451.27168 451.25632 451.27168s451.25632-202.43456 451.25632-451.27168c0-248.81664-202.42944-451.25632-451.25632-451.25632z" fill="#6C0000" p-id="15065"></path><path d="M948.62848 473.40032m-42.52672 0a42.52672 42.52672 0 1 0 85.05344 0 42.52672 42.52672 0 1 0-85.05344 0Z" fill="#ECF3FE" p-id="15066"></path><path d="M948.62848 524.94848c-28.42624 0-51.56352-23.1168-51.56352-51.54816s23.13216-51.56352 51.56352-51.56352 51.56352 23.13216 51.56352 51.56352-23.13216 51.54816-51.56352 51.54816z m0-85.04832c-18.46272 0-33.4848 15.03232-33.4848 33.50016 0 18.4576 15.02208 33.4848 33.4848 33.4848s33.4848-15.03232 33.4848-33.4848a33.52576 33.52576 0 0 0-33.4848-33.50016z" fill="#6C0000" p-id="15067"></path><path d="M422.10304 497.70496m-281.216 0a281.216 281.216 0 1 0 562.432 0 281.216 281.216 0 1 0-562.432 0Z" fill="#00DFD5" p-id="15068"></path><path d="M422.10816 787.94752c-160.04608 0-290.25792-130.19648-290.25792-290.24768s130.21184-290.24768 290.25792-290.24768 290.25792 130.19648 290.25792 290.24768-130.21696 290.24768-290.25792 290.24768z m0-562.43712c-150.08256 0-272.1792 122.10688-272.1792 272.18944s122.10176 272.18944 272.1792 272.18944 272.1792-122.10688 272.1792-272.18944-122.10176-272.18944-272.1792-272.18944z" fill="#6C0000" p-id="15069"></path><path d="M237.91104 525.66016m-13.4144 0a13.4144 13.4144 0 1 0 26.8288 0 13.4144 13.4144 0 1 0-26.8288 0Z" fill="#FFEB43" p-id="15070"></path><path d="M237.90592 546.6112a20.97152 20.97152 0 0 1-20.9408-20.95616 20.9664 20.9664 0 0 1 20.9408-20.9408 20.97152 20.97152 0 0 1 20.95104 20.9408 20.97664 20.97664 0 0 1-20.95104 20.95616z m0-26.83904a5.888 5.888 0 1 0 0.00512 11.776 5.888 5.888 0 0 0-0.00512-11.776zM410.86976 717.6448c-29.1072 0-52.79744-23.68512-52.79744-52.83328 0-29.1072 23.68512-52.79744 52.79744-52.79744 29.12256 0 52.82304 23.68512 52.82304 52.79232 0 29.14816-23.70048 52.8384-52.82304 52.8384z m0-67.66592c-8.17152 0-14.83264 6.63552-14.83264 14.83264s6.66112 14.86848 14.83264 14.86848c8.19712 0 14.84288-6.67136 14.84288-14.86848s-6.64576-14.83264-14.84288-14.83264z" fill="#6B0306" p-id="15071"></path><path d="M641.93536 479.62624m-10.92096 0a10.92096 10.92096 0 1 0 21.84192 0 10.92096 10.92096 0 1 0-21.84192 0Z" fill="#FFEB43" p-id="15072"></path><path d="M641.94048 498.06848c-10.16832 0-18.44736-8.27904-18.44736-18.44224s8.27904-18.44224 18.44736-18.44224 18.44224 8.27904 18.44224 18.44224-8.27392 18.44224-18.44224 18.44224z m0-21.82656a3.38944 3.38944 0 0 0-3.38944 3.38432c0 3.7376 6.77376 3.7376 6.77376 0a3.38944 3.38944 0 0 0-3.38432-3.38432z" fill="#6B0306" p-id="15073"></path><path d="M284.06784 378.49088m-6.144 0a6.144 6.144 0 1 0 12.288 0 6.144 6.144 0 1 0-12.288 0Z" fill="#FFEB43" p-id="15074"></path><path d="M284.06272 378.48576m-13.67552 0a13.67552 13.67552 0 1 0 27.35104 0 13.67552 13.67552 0 1 0-27.35104 0Z" fill="#6B0306" p-id="15075"></path><path d="M621.55264 590.04416m-6.144 0a6.144 6.144 0 1 0 12.288 0 6.144 6.144 0 1 0-12.288 0Z" fill="#FFEB43" p-id="15076"></path><path d="M621.54752 603.71968a13.69088 13.69088 0 0 1-13.6704-13.67552c0-7.53152 6.13376-13.66016 13.6704-13.66016s13.6704 6.13376 13.6704 13.66016a13.69088 13.69088 0 0 1-13.6704 13.67552z" fill="#6B0306" p-id="15077"></path><path d="M410.88512 664.832m-33.8176 0a33.8176 33.8176 0 1 0 67.6352 0 33.8176 33.8176 0 1 0-67.6352 0Z" fill="#FFEB43" p-id="15078"></path></svg>