<?xml version="1.0" standalone="no"?><!DOCTYPE svg PUBLIC "-//W3C//DTD SVG 1.1//EN" "http://www.w3.org/Graphics/SVG/1.1/DTD/svg11.dtd"><svg t="1480867518442" class="icon" style="" viewBox="0 0 1024 1024" version="1.1" xmlns="http://www.w3.org/2000/svg" p-id="3609" xmlns:xlink="http://www.w3.org/1999/xlink" width="200" height="200"><defs><style type="text/css"></style></defs><path d="M505.56928 987.48416c-262.99904 0-476.94336-213.94432-476.94336-476.94336S242.57024 33.59744 505.56928 33.59744s476.94848 213.94432 476.94848 476.94336-213.94432 476.94336-476.94848 476.94336z" fill="#6C0000" p-id="3610"></path><path d="M80.55296 333.69088h850.03776c-71.168-164.29056-234.87488-279.52128-425.02144-279.52128S151.72096 169.40032 80.55296 333.69088z" fill="#FFEC43" p-id="3611"></path><path d="M80.55296 690.13504h850.03776c-71.168 164.29056-234.87488 279.52128-425.02144 279.52128s-353.84832-115.23072-425.01632-279.52128z" fill="#FFBD00" p-id="3612"></path><path d="M49.10592 511.14496c0 56.28416 9.47712 110.29504 26.81856 160.42496h857.18528c17.34144-50.12992 26.81856-104.14592 26.81856-160.42496s-9.47712-110.29504-26.81856-160.42496H75.92448c-17.34144 50.12992-26.81856 104.14592-26.81856 160.42496z" fill="#00DFD5" p-id="3613"></path></svg>