<?xml version="1.0" standalone="no"?><!DOCTYPE svg PUBLIC "-//W3C//DTD SVG 1.1//EN" "http://www.w3.org/Graphics/SVG/1.1/DTD/svg11.dtd"><svg t="1480867608033" class="icon" style="" viewBox="0 0 1024 1024" version="1.1" xmlns="http://www.w3.org/2000/svg" p-id="14677" xmlns:xlink="http://www.w3.org/1999/xlink" width="200" height="200"><defs><style type="text/css"></style></defs><path d="M512 544.9472m-434.29376 0a434.29376 434.29376 0 1 0 868.58752 0 434.29376 434.29376 0 1 0-868.58752 0Z" fill="#BED5E9" p-id="14678"></path><path d="M512 988.35968c-244.49536 0-443.41248-198.91712-443.41248-443.41248S267.50464 101.53472 512 101.53472s443.41248 198.91712 443.41248 443.41248-198.91712 443.41248-443.41248 443.41248z m0-868.59264c-234.4448 0-425.18016 190.73536-425.18016 425.18016S277.5552 970.12736 512 970.12736s425.18016-190.73536 425.18016-425.18016S746.4448 119.76704 512 119.76704z" fill="#6C0000" p-id="14679"></path><path d="M512 544.9472m-346.0352 0a346.0352 346.0352 0 1 0 692.0704 0 346.0352 346.0352 0 1 0-692.0704 0Z" fill="#ECF3FE" p-id="14680"></path><path d="M512 900.10624c-195.82976 0-355.15904-159.32416-355.15904-355.15904S316.17024 189.7984 512 189.7984s355.1488 159.31904 355.1488 355.1488-159.31904 355.15904-355.1488 355.15904z m0-692.07552c-185.7792 0-336.92672 151.13728-336.92672 336.91648s151.1424 336.92672 336.92672 336.92672 336.91648-151.1424 336.91648-336.92672S697.7792 208.03072 512 208.03072z" fill="#6C0000" p-id="14681"></path><path d="M512 544.9472m-255.91296 0a255.91296 255.91296 0 1 0 511.82592 0 255.91296 255.91296 0 1 0-511.82592 0Z" fill="#FFFFFF" p-id="14682"></path><path d="M512 809.97888c-146.14016 0-265.03168-118.89664-265.03168-265.03168S365.85984 279.92064 512 279.92064s265.02656 118.8864 265.02656 265.02656-118.8864 265.03168-265.02656 265.03168z m0-511.82592c-136.0896 0-246.79936 110.71488-246.79936 246.79424 0 136.0896 110.71488 246.79936 246.79936 246.79936 136.07936 0 246.79424-110.71488 246.79424-246.79936 0-136.07936-110.71488-246.79424-246.79424-246.79424z" fill="#6C0000" p-id="14683"></path><path d="M257.1264 605.6448m-76.97408 0a76.97408 76.97408 0 1 0 153.94816 0 76.97408 76.97408 0 1 0-153.94816 0Z" fill="#00DFD5" p-id="14684"></path><path d="M257.1264 691.73248c-47.46752 0-86.08768-38.62016-86.08768-86.08768s38.62016-86.08768 86.08768-86.08768c47.4624 0 86.08256 38.62016 86.08256 86.08768s-38.62016 86.08768-86.08256 86.08768z m0-153.94816c-37.41696 0-67.86048 30.4384-67.86048 67.86048s30.4384 67.86048 67.86048 67.86048c37.41184 0 67.85024-30.4384 67.85024-67.86048s-30.4384-67.86048-67.85024-67.86048z" fill="#6C0000" p-id="14685"></path><path d="M701.7216 120.63232m-76.97408 0a76.97408 76.97408 0 1 0 153.94816 0 76.97408 76.97408 0 1 0-153.94816 0Z" fill="#FFEC43" p-id="14686"></path><path d="M701.7216 206.71488c-47.46752 0-86.08768-38.62016-86.08768-86.08256 0-47.46752 38.62016-86.08768 86.08768-86.08768s86.08768 38.62016 86.08768 86.08768c0 47.4624-38.62016 86.08256-86.08768 86.08256z m0-153.93792c-37.41696 0-67.86048 30.4384-67.86048 67.86048 0 37.41184 30.4384 67.85024 67.86048 67.85024s67.86048-30.4384 67.86048-67.85024c-0.00512-37.42208-30.44352-67.86048-67.86048-67.86048z" fill="#6B0204" p-id="14687"></path><path d="M797.184 898.14016m-76.97408 0a76.97408 76.97408 0 1 0 153.94816 0 76.97408 76.97408 0 1 0-153.94816 0Z" fill="#FFC700" p-id="14688"></path><path d="M797.184 984.22784c-47.46752 0-86.08768-38.62016-86.08768-86.08768 0-47.4624 38.62016-86.08256 86.08768-86.08256s86.08768 38.62016 86.08768 86.08256c0 47.46752-38.62016 86.08768-86.08768 86.08768z m0-153.93792c-37.41696 0-67.86048 30.4384-67.86048 67.85024 0 37.41696 30.4384 67.86048 67.86048 67.86048s67.86048-30.4384 67.86048-67.86048c0-37.41184-30.4384-67.85024-67.86048-67.85024z" fill="#6C0000" p-id="14689"></path><path d="M512 544.9472m-159.104 0a159.104 159.104 0 1 0 318.208 0 159.104 159.104 0 1 0-318.208 0Z" fill="#ECF3FE" p-id="14690"></path><path d="M512 713.17504c-92.75904 0-168.22784-75.4688-168.22784-168.22784S419.24096 376.7296 512 376.7296s168.2176 75.45856 168.2176 168.2176-75.45856 168.22784-168.2176 168.22784z m0-318.21312c-82.70848 0-149.99552 67.28192-149.99552 149.98528S429.29152 694.94272 512 694.94272s149.98528-67.28704 149.98528-149.99552S594.70848 394.96192 512 394.96192z" fill="#6C0000" p-id="14691"></path></svg>