<?xml version="1.0" standalone="no"?><!DOCTYPE svg PUBLIC "-//W3C//DTD SVG 1.1//EN" "http://www.w3.org/Graphics/SVG/1.1/DTD/svg11.dtd"><svg t="1480867579372" class="icon" style="" viewBox="0 0 1024 1024" version="1.1" xmlns="http://www.w3.org/2000/svg" p-id="8586" xmlns:xlink="http://www.w3.org/1999/xlink" width="200" height="200"><defs><style type="text/css"></style></defs><path d="M924.65664 514.33472c-119.27552-12.0832-220.96896-1.98144-306.74432 20.52608-16.65536-45.94176-35.93216-93.0304-58.18368-138.83904 86.89152-33.05472 176.62976-82.44736 259.65056-155.62752l0.03072-0.03072c65.41312 72.53504 105.24672 168.6016 105.24672 273.9712z" fill="#FF4893" p-id="8587"></path><path d="M617.91232 534.85568c85.77536-22.50752 187.4688-32.60928 306.74432-20.52608 0 156.68224-88.0128 292.74112-217.32352 361.472 0 0.00512-24.5248-161.72544-89.4208-340.94592z m201.50272-294.49728l-0.03072 0.03072c-83.02592 73.17504-172.75904 122.56768-259.65056 155.62752-49.83808-102.74816-114.38592-199.04-196.67456-261.44256l-0.03072-0.128c47.08864-18.8928 98.52928-29.31712 152.3968-29.31712 120.64768 0 229.08416 52.20864 303.98976 135.22944z" fill="#FF4893" p-id="8588"></path><path d="M617.91232 534.85568c64.896 179.22048 89.41568 340.95104 89.41568 340.95104-57.22624 30.464-122.56768 47.72864-191.90784 47.72864-110.74048 0-211.22048-43.99104-284.8768-115.44064l0.06144-0.06144c0.00512 0 110.90432-200.76544 387.30752-273.1776z" fill="#FF4893" p-id="8589"></path><path d="M559.72864 396.01664c22.25152 45.81376 41.52832 92.9024 58.18368 138.83904-276.4032 72.41216-387.3024 273.1776-387.3024 273.1776l-0.06144 0.06144c-76.66176-74.35776-124.32896-178.4832-124.32896-293.76512 0-19.9168 1.408-39.48032 4.18816-58.5984 31.03744 3.74272 231.19872 23.3728 449.32096-59.71456z" fill="#FF4893" p-id="8590"></path><path d="M363.05408 134.57408c82.28864 62.40256 146.83136 158.6944 196.67456 261.44256C341.6064 479.104 141.44512 459.47392 110.40256 455.73632c20.97152-146.41664 119.5008-267.83744 252.6208-321.29024l0.03072 0.128z" fill="#FF4893" p-id="8591"></path><path d="M515.42016 945.91488c-112.81408 0-219.52-43.2384-300.45696-121.75872-84.5568-82.01728-131.1232-192.04608-131.1232-309.82656 0-20.85888 1.4848-41.65632 4.42368-61.824 21.72928-151.72096 123.82208-281.5744 266.42432-338.83136 51.15392-20.52096 105.23136-30.9248 160.73728-30.9248 121.97888 0 238.83776 51.98336 320.60928 142.6176a430.7968 430.7968 0 0 1 111.00672 288.96768c0 160.01024-87.82336 306.08896-229.20192 381.23008-61.86496 32.93696-131.86048 50.35008-202.4192 50.35008z m0-818.4064c-49.77152 0-98.24256 9.32352-144.06656 27.70944C243.53792 206.5408 152.03328 322.90816 132.5568 458.91072a386.0992 386.0992 0 0 0-3.96288 55.42912c0 105.56416 41.73824 204.18048 117.5296 277.69856 72.54528 70.36928 168.18176 109.12768 269.29664 109.12768 63.24224 0 125.96736-15.59552 181.39136-45.1072 126.7456-67.36384 205.4656-198.30272 205.4656-341.71904a386.10944 386.10944 0 0 0-99.4816-258.99008c-73.2928-81.24416-178.03776-127.84128-287.37536-127.84128z" fill="#4F46A3" p-id="8592"></path><path d="M109.17376 433.00864l4.06528 0.52736c22.02624 2.65216 222.83776 23.72608 438.51776-58.43456 94.4896-35.94752 179.55328-86.91712 252.8256-151.5008a22.37952 22.37952 0 0 1 29.5936 33.57696c-77.32224 68.1472-166.97856 121.89696-266.496 159.75424C424.36096 471.5264 289.4848 482.90304 202.00448 482.90304c-47.43168 0-80.91136-3.33824-94.27968-4.95104l-4.46976-0.57856m127.32928 353.024c-3.7888 0-7.51104-0.96768-10.82368-2.81088a22.35904 22.35904 0 0 1-8.74496-30.37184c1.19808-2.176 30.12608-53.90848 94.16704-114.82624 58.7264-55.86432 159.6672-130.56512 307.06176-169.17504 96.72704-25.38496 202.5984-32.50176 314.67008-21.14048a22.3744 22.3744 0 0 1-4.51584 44.52352c-106.72128-10.81344-207.26272-4.11648-298.80832 19.90656-137.35936 35.98336-231.45984 105.25696-286.21312 157.0304-59.59168 56.35072-86.93248 104.86784-87.19872 105.34912a22.4 22.4 0 0 1-19.59424 11.51488z" fill="#4F46A3" p-id="8593"></path><path d="M707.3024 898.18624a22.38464 22.38464 0 0 1-22.09792-19.0208c-0.24064-1.59744-25.00096-161.80224-88.33536-336.68608-17.80224-49.11104-37.07392-95.104-57.27232-136.68864-55.62368-114.68288-119.57248-199.93088-190.06464-253.3888a22.37952 22.37952 0 0 1 27.04896-35.66592c76.16 57.75872 144.55296 148.43392 203.27936 269.50656 20.86912 42.96704 40.7552 90.40384 59.08992 140.98432 64.90624 179.24096 89.48736 338.52928 90.50624 345.22112a22.3744 22.3744 0 0 1-22.15424 25.73824z" fill="#4F46A3" p-id="8594"></path></svg>