<?xml version="1.0" standalone="no"?><!DOCTYPE svg PUBLIC "-//W3C//DTD SVG 1.1//EN" "http://www.w3.org/Graphics/SVG/1.1/DTD/svg11.dtd"><svg t="1480853477906" class="icon" style="" viewBox="0 0 1024 1024" version="1.1" xmlns="http://www.w3.org/2000/svg" p-id="2479" xmlns:xlink="http://www.w3.org/1999/xlink" width="200" height="200"><defs><style type="text/css"></style></defs><path d="M191.563944 257.081123m-64.034409 0a62.576 62.576 0 1 0 128.068817 0 62.576 62.576 0 1 0-128.068817 0Z" p-id="2480" fill="#00ffff"></path><path d="M829.560566 321.114508 384.090818 321.114508c-35.219129 0-64.034409-28.815279-64.034409-64.034409l0 0c0-35.219129 28.815279-64.034409 64.034409-64.034409l445.469748 0c35.219129 0 64.034409 28.815279 64.034409 64.034409l0 0C893.594975 292.299229 864.779695 321.114508 829.560566 321.114508z" p-id="2481" fill="#00ffff"></path><path d="M193.001689 512m-64.034409 0a62.576 62.576 0 1 0 128.068817 0 62.576 62.576 0 1 0-128.068817 0Z" p-id="2482" fill="#00ffff"></path><path d="M830.998311 576.033385 385.528564 576.033385c-35.219129 0-64.034409-28.815279-64.034409-64.034409l0 0c0-35.219129 28.815279-64.034409 64.034409-64.034409l445.469748 0c35.219129 0 64.034409 28.815279 64.034409 64.034409l0 0C895.031697 547.218106 866.216417 576.033385 830.998311 576.033385z" p-id="2483" fill="#00ffff"></path><path d="M193.001689 766.918877m-64.034409 0a62.576 62.576 0 1 0 128.068817 0 62.576 62.576 0 1 0-128.068817 0Z" p-id="2484" fill="#00ffff"></path><path d="M830.998311 830.953286 385.528564 830.953286c-35.219129 0-64.034409-28.815279-64.034409-64.034409l0 0c0-35.219129 28.815279-64.034409 64.034409-64.034409l445.469748 0c35.219129 0 64.034409 28.815279 64.034409 64.034409l0 0C895.031697 802.138006 866.216417 830.953286 830.998311 830.953286z" p-id="2485" fill="#00ffff"></path></svg>