<?xml version="1.0" standalone="no"?><!DOCTYPE svg PUBLIC "-//W3C//DTD SVG 1.1//EN" "http://www.w3.org/Graphics/SVG/1.1/DTD/svg11.dtd"><svg t="1480853736063" class="icon" style="" viewBox="0 0 1024 1024" version="1.1" xmlns="http://www.w3.org/2000/svg" p-id="5240" xmlns:xlink="http://www.w3.org/1999/xlink" width="200" height="200"><defs><style type="text/css"></style></defs><path d="M466.8 322.3c29.9-16.8 40.6-54.8 23.8-84.8-16.8-29.9-54.8-40.6-84.8-23.8-29.9 16.8-40.6 54.8-23.8 84.8 16.8 29.9 54.8 40.6 84.8 23.8z m-39.2-69.7c8.5-4.8 19.3-1.7 24.1 6.8 4.8 8.5 1.7 19.3-6.8 24.1-8.5 4.8-19.3 1.7-24.1-6.8-4.7-8.5-1.7-19.3 6.8-24.1z m-18.2 426.8c48.4-27.2 65.6-88.6 38.4-137-27.2-48.3-88.6-65.6-137-38.4-48.3 27.2-65.6 88.6-38.4 136.9 27.2 48.4 88.6 65.7 137 38.5z m-76.7-136.5c26.9-15.1 61.2-5.5 76.3 21.4 15.1 26.9 5.5 61.2-21.4 76.3-26.9 15.1-61.2 5.5-76.3-21.4-15.2-27-5.6-61.2 21.4-76.3z m358.5-83c27.5-15.5 37.3-50.4 21.9-78-15.5-27.5-50.4-37.3-78-21.9-27.5 15.5-37.3 50.4-21.9 78 15.5 27.6 50.5 37.4 78 21.9z m-34.3-61c6.1-3.4 13.9-1.3 17.3 4.9 3.4 6.1 1.3 13.9-4.9 17.3-6.1 3.4-13.9 1.3-17.3-4.9-3.4-6.1-1.2-13.8 4.9-17.3z m271.7-275.1c-47.6-51.2-140.6-51.4-257-3.3 18.9 7.7 37.3 16.8 54.9 27.2 78.5-25.9 140.4-24.7 169.4 6.5 28.7 30.9 26.7 92.2-5.4 169.8-3.6 8.8-7.6 17.8-12 26.9-5.3-12.1-11.2-23.9-17.6-35.4C752.6 122.7 507.8 54 315 162.3 122.3 270.5 53.5 515.4 161.8 708.1c39.1 69.7 96.1 123 162 157.8-9.4 3.7-18.7 7.1-27.7 10-78.5 25.9-140.4 24.7-169.3-6.5-28.8-31-26.5-91.9 5.6-169.3-9.2-18.5-16.9-37.4-23.1-56.5-1.8 3.5-3.6 7.1-5.3 10.5-52.2 109.1-55.7 196.3-9.9 245.6 47.6 51.1 140.6 51.4 257 3.3 9.5-3.9 19.2-8.3 29-12.8 104.7 36.2 223.7 29.4 327.6-29C870.6 769.8 944.9 580.7 898.6 408c5.2-9.4 10.2-18.8 14.8-28 1.8-3.5 3.6-7 5.3-10.5 52.2-109.2 55.7-196.4 9.9-245.7z m-728 562.5c-96.2-171.3-35.1-389 136.2-485.2 171.3-96.2 389-35.1 485.2 136.2 11.7 20.8 21.3 42.8 28.6 65.6-5.1 8.7-10.4 17.2-15.8 25.7-45.3 70.6-109.3 147.8-192 224.7-73 67.9-151.4 126.1-227 168.6-3.8 2.1-7.6 4.2-11.5 6.3-8.8 4.8-17.7 9.4-26.7 13.8-72.3-29.3-135.8-82.4-177-155.7z m485.3 136.2c-78.2 43.9-165.9 55-247.5 37.8 10-5.6 19.9-11.4 29.7-17.4 69-42 139.4-95.8 205.2-157C739.9 624 798.2 558 844.8 492.6c6.7-9.4 13.2-18.9 19.6-28.5 18.8 140.5-47.6 284.9-178.5 358.4z" p-id="5241" fill="#00ffff"></path></svg>