<?xml version="1.0" standalone="no"?><!DOCTYPE svg PUBLIC "-//W3C//DTD SVG 1.1//EN" "http://www.w3.org/Graphics/SVG/1.1/DTD/svg11.dtd"><svg t="1480853756415" class="icon" style="" viewBox="0 0 1024 1024" version="1.1" xmlns="http://www.w3.org/2000/svg" p-id="6004" xmlns:xlink="http://www.w3.org/1999/xlink" width="200" height="200"><defs><style type="text/css"></style></defs><path d="M919.802358 918.373311c0-3.595898-1.119497-6.873548-1.99647-10.226922-19.107173-145.496745-113.674992-267.242554-243.898893-323.202053 75.544557-51.642171 125.187187-138.535193 125.187187-237.019205 0-158.520363-128.464837-286.986223-287.044552-286.986223-158.521386 0-287.025109 128.46586-287.025109 286.986223 0 98.565876 49.643654 185.377034 125.267005 237.101069-128.104633 55.07741-221.474161 173.946704-242.578828 316.400137-2.396583 5.198395-3.91517 10.872628-3.91517 16.946974l0.400113 3.759627c0 22.62223 18.304901 40.927131 40.928155 40.927131 22.582321 0 40.929178-18.304901 40.929178-40.927131l-0.039909-0.481977 0.99977 0c19.426445-158.677952 152.045905-282.105053 314.76387-287.143812 3.437286 0.081864 6.794753 0.480954 10.271948 0.480954 3.476171 0 6.874571-0.399089 10.310833-0.480954 162.737408 5.039783 295.358915 128.46586 314.783313 287.143812l1.199315 0 0 0.481977c0 22.62223 18.307971 40.927131 40.929178 40.927131 22.623253 0 40.929178-18.304901 40.929178-40.927131L919.802358 918.373311zM512.010745 553.051975c-113.237017 0-205.047026-91.775216-205.047026-204.968232 0-113.27488 91.810009-205.04498 205.047026-205.04498 113.213481 0 204.984604 91.7701 204.984604 205.04498C716.995349 461.277782 625.223203 553.051975 512.010745 553.051975z" p-id="6005" fill="#00ffff"></path></svg>